HIERARCHY
ROOT Root
{
  OFFSET 0.0 0.0 0.0
  CHANNELS 6 Xposition Yposition Zposition Zrotation Yrotation Xrotation
  JOINT Hips
  {
    OFFSET 0.0 100.0 0.0
    CHANNELS 6 Xposition Yposition Zposition Zrotation Yrotation Xrotation
    JOINT Spine1
    {
      OFFSET 5.003913 -0.037094 -0.013727
      CHANNELS 3 Zrotation Yrotation Xrotation
      JOINT Spine2
      {
        OFFSET 7.125363 -1e-06 0.0
        CHANNELS 3 Zrotation Yrotation Xrotation
        JOINT Chest
        {
          OFFSET 7.594027 1e-06 0.0
          CHANNELS 3 Zrotation Yrotation Xrotation
          JOINT Neck1
          {
            OFFSET 26.313086 -0.460272 -0.181672
            CHANNELS 3 Zrotation Yrotation Xrotation
            JOINT Neck2
            {
              OFFSET 8.045911 0.0 0.0
              CHANNELS 3 Zrotation Yrotation Xrotation
              JOINT Head
              {
                OFFSET 6.432774 0.0 0.0
                CHANNELS 3 Zrotation Yrotation Xrotation
                JOINT HeadEnd
                {
                  OFFSET 16.169773 0.06451 0.00362
                  CHANNELS 3 Zrotation Yrotation Xrotation
                }
                JOINT Jaw
                {
                  OFFSET 0.108741 3.12938 0.002639
                  CHANNELS 3 Zrotation Yrotation Xrotation
                }
                JOINT LeftEye
                {
                  OFFSET 4.45173 8.166359 3.206392
                  CHANNELS 3 Zrotation Yrotation Xrotation
                }
                JOINT RightEye
                {
                  OFFSET 4.436895 8.135758 -3.222429
                  CHANNELS 3 Zrotation Yrotation Xrotation
                }
              }
            }
          }
          JOINT LeftShoulder
          {
            OFFSET 23.218927 5.195579 1.621656
            CHANNELS 3 Zrotation Yrotation Xrotation
            JOINT LeftArm
            {
              OFFSET 15.902118 2e-06 -2e-06
              CHANNELS 3 Zrotation Yrotation Xrotation
              JOINT LeftForeArm
              {
                OFFSET 28.739307 0.0 -1e-06
                CHANNELS 3 Zrotation Yrotation Xrotation
                JOINT LeftHand
                {
                  OFFSET 27.093981 -4e-06 0.0
                  CHANNELS 3 Zrotation Yrotation Xrotation
                  JOINT LeftHandThumb1
                  {
                    OFFSET 2.276781 3.380274 0.83384
                    CHANNELS 3 Zrotation Yrotation Xrotation
                    JOINT LeftHandThumb2
                    {
                      OFFSET 4.705309 -1e-06 -1e-06
                      CHANNELS 3 Zrotation Yrotation Xrotation
                      JOINT LeftHandThumb3
                      {
                        OFFSET 2.798515 0.0 3e-06
                        CHANNELS 3 Zrotation Yrotation Xrotation
                        JOINT LeftHandThumbEnd
                        {
                          OFFSET 3.180793 4e-06 -4e-06
                          CHANNELS 3 Zrotation Yrotation Xrotation
                        }
                      }
                    }
                  }
                  JOINT LeftHandIndex1
                  {
                    OFFSET 3.247786 2.352677 0.137192
                    CHANNELS 3 Zrotation Yrotation Xrotation
                    JOINT LeftHandIndex2
                    {
                      OFFSET 6.367095 1e-06 0.0
                      CHANNELS 3 Zrotation Yrotation Xrotation
                      JOINT LeftHandIndex3
                      {
                        OFFSET 3.662364 0.0 0.0
                        CHANNELS 3 Zrotation Yrotation Xrotation
                        JOINT LeftHandIndex4
                        {
                          OFFSET 2.329242 4e-06 -4e-06
                          CHANNELS 3 Zrotation Yrotation Xrotation
                          JOINT LeftHandIndexEnd
                          {
                            OFFSET 2.767823 1e-06 0.0
                            CHANNELS 3 Zrotation Yrotation Xrotation
                          }
                        }
                      }
                    }
                  }
                  JOINT LeftHandMiddle1
                  {
                    OFFSET 3.163612 0.945023 -0.406112
                    CHANNELS 3 Zrotation Yrotation Xrotation
                    JOINT LeftHandMiddle2
                    {
                      OFFSET 6.276789 3e-06 0.0
                      CHANNELS 3 Zrotation Yrotation Xrotation
                      JOINT LeftHandMiddle3
                      {
                        OFFSET 4.35652 -1e-06 4e-06
                        CHANNELS 3 Zrotation Yrotation Xrotation
                        JOINT LeftHandMiddle4
                        {
                          OFFSET 2.996877 0.0 8e-06
                          CHANNELS 3 Zrotation Yrotation Xrotation
                          JOINT LeftHandMiddleEnd
                          {
                            OFFSET 2.323256 3e-06 -4e-06
                            CHANNELS 3 Zrotation Yrotation Xrotation
                          }
                        }
                      }
                    }
                  }
                  JOINT LeftHandRing1
                  {
                    OFFSET 2.882606 -0.309162 0.107445
                    CHANNELS 3 Zrotation Yrotation Xrotation
                    JOINT LeftHandRing2
                    {
                      OFFSET 6.033198 0.0 4e-06
                      CHANNELS 3 Zrotation Yrotation Xrotation
                      JOINT LeftHandRing3
                      {
                        OFFSET 4.350578 3e-06 0.0
                        CHANNELS 3 Zrotation Yrotation Xrotation
                        JOINT LeftHandRing4
                        {
                          OFFSET 2.651321 2e-06 -7e-06
                          CHANNELS 3 Zrotation Yrotation Xrotation
                          JOINT LeftHandRingEnd
                          {
                            OFFSET 1.937663 1e-06 -4e-06
                            CHANNELS 3 Zrotation Yrotation Xrotation
                          }
                        }
                      }
                    }
                  }
                  JOINT LeftHandPinky1
                  {
                    OFFSET 2.865315 -1.525436 0.575687
                    CHANNELS 3 Zrotation Yrotation Xrotation
                    JOINT LeftHandPinky2
                    {
                      OFFSET 5.54936 1e-06 -8e-06
                      CHANNELS 3 Zrotation Yrotation Xrotation
                      JOINT LeftHandPinky3
                      {
                        OFFSET 3.070974 0.0 -4e-06
                        CHANNELS 3 Zrotation Yrotation Xrotation
                        JOINT LeftHandPinky4
                        {
                          OFFSET 1.549672 1e-06 0.0
                          CHANNELS 3 Zrotation Yrotation Xrotation
                          JOINT LeftHandPinkyEnd
                          {
                            OFFSET 1.952123 0.0 0.0
                            CHANNELS 3 Zrotation Yrotation Xrotation
                          }
                        }
                      }
                    }
                  }
                }
              }
            }
          }
          JOINT RightShoulder
          {
            OFFSET 23.161716 5.296122 -1.380114
            CHANNELS 3 Zrotation Yrotation Xrotation
            JOINT RightArm
            {
              OFFSET -16.027195 -2e-06 1.1e-05
              CHANNELS 3 Zrotation Yrotation Xrotation
              JOINT RightForeArm
              {
                OFFSET -28.736639 4e-06 2e-06
                CHANNELS 3 Zrotation Yrotation Xrotation
                JOINT RightHand
                {
                  OFFSET -27.133619 6e-06 0.0
                  CHANNELS 3 Zrotation Yrotation Xrotation
                  JOINT RightHandThumb1
                  {
                    OFFSET -2.274328 -3.351035 -0.83067
                    CHANNELS 3 Zrotation Yrotation Xrotation
                    JOINT RightHandThumb2
                    {
                      OFFSET -4.703594 -3e-06 2e-06
                      CHANNELS 3 Zrotation Yrotation Xrotation
                      JOINT RightHandThumb3
                      {
                        OFFSET -2.794935 -4e-06 -3e-06
                        CHANNELS 3 Zrotation Yrotation Xrotation
                        JOINT RightHandThumbEnd
                        {
                          OFFSET -3.183852 4e-06 1e-06
                          CHANNELS 3 Zrotation Yrotation Xrotation
                        }
                      }
                    }
                  }
                  JOINT RightHandIndex1
                  {
                    OFFSET -3.253496 -2.33755 -0.127667
                    CHANNELS 3 Zrotation Yrotation Xrotation
                    JOINT RightHandIndex2
                    {
                      OFFSET -6.344434 0.0 0.0
                      CHANNELS 3 Zrotation Yrotation Xrotation
                      JOINT RightHandIndex3
                      {
                        OFFSET -3.654871 0.0 -8e-06
                        CHANNELS 3 Zrotation Yrotation Xrotation
                        JOINT RightHandIndex4
                        {
                          OFFSET -2.327586 -1e-06 0.0
                          CHANNELS 3 Zrotation Yrotation Xrotation
                          JOINT RightHandIndexEnd
                          {
                            OFFSET -2.770001 3e-06 8e-06
                            CHANNELS 3 Zrotation Yrotation Xrotation
                          }
                        }
                      }
                    }
                  }
                  JOINT RightHandMiddle1
                  {
                    OFFSET -3.168223 -0.944764 0.411762
                    CHANNELS 3 Zrotation Yrotation Xrotation
                    JOINT RightHandMiddle2
                    {
                      OFFSET -6.266691 -1e-06 -4e-06
                      CHANNELS 3 Zrotation Yrotation Xrotation
                      JOINT RightHandMiddle3
                      {
                        OFFSET -4.348901 0.0 0.0
                        CHANNELS 3 Zrotation Yrotation Xrotation
                        JOINT RightHandMiddle4
                        {
                          OFFSET -3.00024 2e-06 -4e-06
                          CHANNELS 3 Zrotation Yrotation Xrotation
                          JOINT RightHandMiddleEnd
                          {
                            OFFSET -2.321477 -4e-06 -4e-06
                            CHANNELS 3 Zrotation Yrotation Xrotation
                          }
                        }
                      }
                    }
                  }
                  JOINT RightHandRing1
                  {
                    OFFSET -2.885654 0.293261 -0.119232
                    CHANNELS 3 Zrotation Yrotation Xrotation
                    JOINT RightHandRing2
                    {
                      OFFSET -6.032835 -1e-06 -4e-06
                      CHANNELS 3 Zrotation Yrotation Xrotation
                      JOINT RightHandRing3
                      {
                        OFFSET -4.33881 0.0 -4e-06
                        CHANNELS 3 Zrotation Yrotation Xrotation
                        JOINT RightHandRing4
                        {
                          OFFSET -2.654903 -4e-06 -4e-06
                          CHANNELS 3 Zrotation Yrotation Xrotation
                          JOINT RightHandRingEnd
                          {
                            OFFSET -1.935122 0.0 4e-06
                            CHANNELS 3 Zrotation Yrotation Xrotation
                          }
                        }
                      }
                    }
                  }
                  JOINT RightHandPinky1
                  {
                    OFFSET -2.866241 1.503904 -0.60527
                    CHANNELS 3 Zrotation Yrotation Xrotation
                    JOINT RightHandPinky2
                    {
                      OFFSET -5.553177 -2e-06 0.0
                      CHANNELS 3 Zrotation Yrotation Xrotation
                      JOINT RightHandPinky3
                      {
                        OFFSET -3.062664 -1e-06 -4e-06
                        CHANNELS 3 Zrotation Yrotation Xrotation
                        JOINT RightHandPinky4
                        {
                          OFFSET -1.546529 2e-06 4e-06
                          CHANNELS 3 Zrotation Yrotation Xrotation
                          JOINT RightHandPinkyEnd
                          {
                            OFFSET -1.952341 0.0 -4e-06
                            CHANNELS 3 Zrotation Yrotation Xrotation
                          }
                        }
                      }
                    }
                  }
                }
              }
            }
          }
        }
      }
    }
    JOINT LeftLeg
    {
      OFFSET -8.443107 2.567604 10.043214
      CHANNELS 3 Zrotation Yrotation Xrotation
      JOINT LeftShin
      {
        OFFSET 43.229198 1e-06 -1e-06
        CHANNELS 3 Zrotation Yrotation Xrotation
        JOINT LeftFoot
        {
          OFFSET 42.298611 1e-06 1e-06
          CHANNELS 3 Zrotation Yrotation Xrotation
          JOINT LeftToeBase
          {
            OFFSET 14.165858 1e-06 0.0
            CHANNELS 3 Zrotation Yrotation Xrotation
            JOINT LeftToeEnd
            {
              OFFSET 6.7141 -0.234461 0.0
              CHANNELS 3 Zrotation Yrotation Xrotation
            }
          }
        }
      }
    }
    JOINT RightLeg
    {
      OFFSET -8.303923 2.592729 -10.047278
      CHANNELS 3 Zrotation Yrotation Xrotation
      JOINT RightShin
      {
        OFFSET -43.369682 0.0 1e-06
        CHANNELS 3 Zrotation Yrotation Xrotation
        JOINT RightFoot
        {
          OFFSET -42.260784 4e-06 2e-06
          CHANNELS 3 Zrotation Yrotation Xrotation
          JOINT RightToeBase
          {
            OFFSET -14.222245 -2e-06 -1e-06
            CHANNELS 3 Zrotation Yrotation Xrotation
            JOINT RightToeEnd
            {
              OFFSET -6.660062 0.232574 -2e-06
              CHANNELS 3 Zrotation Yrotation Xrotation
            }
          }
        }
      }
    }
  }
}
MOTION
Frames: 5
Frame Time: 0.03333333333333333
0.0 0.0 0.0 0.0 -0.0 0.0 0.934814 100.2817 5.841925 90.070145 -1.384607 90.058273 -2.727761 1.184373 -0.187702 -11.520909 -0.61076 -0.497405 17.286512 0.939205 -2.212612 6.470545 6.506967 2.32169 -2.404602 -0.648824 2.028136 -38.123177 1.560359 1.988335 6e-06 -0.0 -0.0 0.051727 -0.053339 -0.037108 0.199116 -0.086094 -0.009529 0.175701 -0.018045 -0.065561 -129.684631 -75.009026 140.657455 18.529427 -41.224663 26.02113 44.505386 -0.330537 -0.170855 1.555845 2.747324 9.202634 17.636627 -26.322725 52.411167 -19.466661 -14.395596 29.410381 -1e-06 -8.774822 -2e-06 15.843204 -18.163748 6.204257 -0.609777 -1.795655 -3.889324 -4.807089 -11.046809 -2.93785 5e-06 -20.976015 -1e-06 -5.019972 -25.033558 -4.031876 8e-06 0.0 -1e-06 -10.634531 -5.686972 -3.565584 10.573271 -17.922949 -3.113899 2e-06 -13.821208 2e-06 -0.501778 -31.181505 -4.027016 -11.161802 -59.563145 7.126594 -13.982712 -7.150197 -2.87504 13.772727 -8.401491 -3.218241 0.347734 -34.211544 0.771652 -0.96303 -17.733366 2.62102 -1e-06 1e-06 -0.0 -17.346418 -20.095217 -4.201779 21.757555 -1.638376 3.866426 1e-06 -6.338823 1e-06 -1.697587 -22.591745 -6.194009 -1e-06 -5e-06 1e-06 39.163315 -73.421104 151.690369 17.39262 -37.989773 29.360958 50.425831 -0.100574 0.19079 -8.701257 6.602951 -0.170967 22.18211 -20.375891 49.933304 -16.701811 -16.743528 28.476522 -3e-06 -12.6906 2e-06 16.250208 -17.518333 2.487428 -0.105919 -1.513857 -4.275879 -5.039042 -5.612874 -2.953556 4e-06 -11.020525 -2e-06 -6.111298 -15.895334 -3.840472 -0.0 -0.0 1e-06 -10.283369 -5.680289 -4.341837 11.028292 -11.302406 -2.372633 -1.384268 -14.238581 -6.320122 -0.625439 -26.924191 -3.8276 -4.120478 -49.582184 -3.642501 -13.708524 -7.363478 -3.720937 18.141148 -14.052738 -3.242676 4e-06 -18.78727 -1e-06 -0.429712 -8.456043 2.555502 1e-06 -0.0 -0.0 -15.923538 -20.094484 -5.47358 30.419214 -7.190823 1.735928 3e-06 -8.162927 -2e-06 -1.8619 -22.861473 -6.167947 -0.0 -3e-06 -1e-06 -177.106705 -6.941047 -13.055298 11.337376 0.023074 0.1501 -77.61367 2.679705 -10.208567 -7.945122 1.47072 2.056654 -0.999998 -1e-06 0.0 -0.439953 -0.177741 -5.831558 11.776195 0.006429 -0.102838 -80.743607 -4.376778 -2.424803 -5.930262 0.909216 1.71286 -1.000002 0.0 0.0 
0.0 0.0 0.0 0.0 -0.0 0.0 0.689577 100.216743 6.136748 90.077751 -1.464434 90.028099 -2.717042 1.179587 -0.20413 -11.495202 -0.598627 -0.491366 17.209154 0.966842 -2.293733 6.380726 6.547878 2.370832 -2.361237 -0.664826 2.002307 -38.046089 1.464911 1.874491 3e-06 -0.0 0.0 0.051063 -0.050577 -0.019668 0.238536 -0.088742 0.007936 0.217726 -0.010092 -0.048695 -129.728561 -75.106361 140.613632 18.491037 -41.129997 25.957415 44.432262 -0.360418 -0.234184 1.740669 2.545927 9.04489 17.636635 -26.322744 52.411213 -19.466663 -14.395602 29.410395 -0.0 -8.774822 -2e-06 15.825066 -18.105177 6.160789 -0.609775 -1.795652 -3.889329 -4.807089 -11.04681 -2.937848 2e-06 -20.976015 0.0 -5.019971 -25.033558 -4.031881 6e-06 -1e-06 -1e-06 -10.634535 -5.686972 -3.565589 10.573271 -17.922949 -3.113897 1e-06 -13.821206 2e-06 -0.501778 -31.181505 -4.027015 -11.099278 -59.627216 7.136211 -13.982712 -7.150196 -2.875041 13.772729 -8.401489 -3.218241 0.347731 -34.211555 0.771658 -0.963033 -17.733372 2.621024 -0.0 -1e-06 1e-06 -17.34642 -20.095217 -4.201783 21.757559 -1.638374 3.86643 1e-06 -6.338824 2e-06 -1.69759 -22.591749 -6.194009 -0.0 -4e-06 1e-06 39.293766 -73.36248 151.536728 17.271215 -38.005779 29.357086 50.074265 -0.059971 0.158014 -8.461117 6.265782 -0.262801 22.182114 -20.375895 49.933323 -16.701805 -16.743525 28.476532 -1e-06 -12.690599 0.0 16.251453 -17.524479 2.512485 -0.10592 -1.513853 -4.27588 -5.039041 -5.612871 -2.953555 5e-06 -11.02052 -2e-06 -6.111294 -15.895329 -3.840471 0.0 -0.0 1e-06 -10.283369 -5.680288 -4.34184 11.02829 -11.302402 -2.37263 -1.384267 -14.238577 -6.320121 -0.625438 -26.924181 -3.827601 -4.153229 -49.681427 -3.619507 -13.708524 -7.363475 -3.72094 18.14115 -14.052734 -3.242675 6e-06 -18.787266 1e-06 -0.429712 -8.456041 2.555504 0.0 0.0 1e-06 -15.923531 -20.094481 -5.473588 30.419197 -7.190823 1.735928 4e-06 -8.162925 -1e-06 -1.8619 -22.861465 -6.167942 -0.0 -3e-06 -1e-06 -176.906403 -7.076026 -13.096463 11.157913 0.030819 0.18336 -77.719505 2.73156 -10.51561 -7.868631 1.5009 2.068322 -0.999998 -0.0 -0.0 -0.51803 -0.051345 -5.806002 12.178794 -1.6e-05 -0.090372 -81.174324 -4.436211 -2.28718 -5.974278 0.886 1.70559 -1.000001 -0.0 0.0 
0.0 0.0 0.0 0.0 -0.0 0.0 0.429393 100.147163 6.348067 90.117645 -1.59085 90.005836 -2.716538 1.14746 -0.213802 -11.486667 -0.607691 -0.517574 17.196949 0.983531 -2.359204 6.265225 6.542892 2.408457 -2.375208 -0.684437 1.954039 -37.960434 1.335013 1.805389 5e-06 -0.0 -0.0 0.048152 -0.050886 -0.018568 0.254277 -0.098018 0.007307 0.236478 -0.001925 -0.046387 -129.841919 -75.20887 140.640121 18.43021 -40.997093 25.940832 44.460598 -0.331827 -0.266744 1.847415 2.337505 8.711545 17.636627 -26.322733 52.411201 -19.46666 -14.3956 29.410393 -1e-06 -8.774822 -0.0 15.833845 -18.100235 6.125433 -0.609777 -1.795653 -3.889326 -4.80709 -11.046812 -2.937851 5e-06 -20.976019 -0.0 -5.01997 -25.033558 -4.031878 6e-06 -1e-06 -0.0 -10.634534 -5.686969 -3.565585 10.573275 -17.922951 -3.1139 3e-06 -13.821209 1e-06 -0.501778 -31.181505 -4.027014 -11.119108 -59.624691 7.134285 -13.982716 -7.1502 -2.875041 13.772731 -8.401491 -3.21824 0.347734 -34.211555 0.771656 -0.963031 -17.73337 2.621025 -1e-06 0.0 -0.0 -17.346422 -20.095217 -4.20178 21.757561 -1.638376 3.866429 2e-06 -6.338824 1e-06 -1.697589 -22.591749 -6.194006 -1e-06 -3e-06 -1e-06 39.236076 -73.307495 151.575592 17.140209 -37.97958 29.335865 49.812553 -0.009122 0.114411 -8.372473 6.019403 -0.450818 22.182121 -20.375898 49.933327 -16.701815 -16.743526 28.47653 -3e-06 -12.690602 -1e-06 16.22789 -17.468927 2.537142 -0.10592 -1.513856 -4.275879 -5.039042 -5.612873 -2.953555 4e-06 -11.020525 -2e-06 -6.111297 -15.895334 -3.840475 0.0 0.0 -1e-06 -10.283373 -5.680288 -4.341837 11.028295 -11.302406 -2.372637 -1.384268 -14.238583 -6.320121 -0.625439 -26.924192 -3.827599 -4.135781 -49.655766 -3.628035 -13.708528 -7.363478 -3.720938 18.141153 -14.052742 -3.242676 8e-06 -18.787271 0.0 -0.42971 -8.456045 2.555506 -1e-06 1e-06 0.0 -15.923539 -20.09449 -5.473588 30.419222 -7.190829 1.735928 5e-06 -8.162927 -0.0 -1.861899 -22.861473 -6.167946 -1e-06 -1e-06 -2e-06 -176.91304 -7.210228 -13.174306 11.198686 0.031185 0.207571 -77.860641 2.798985 -10.711476 -7.831078 1.51457 2.077293 -0.999999 1e-06 -0.0 -0.820466 0.036979 -5.789641 12.845022 -0.000415 -0.083195 -81.678085 -4.505531 -2.163069 -5.993952 0.874474 1.700402 -1.000003 1e-06 -0.0 
0.0 0.0 0.0 0.0 -0.0 0.0 0.156433 100.062263 6.494705 90.161583 -1.74442 89.987801 -2.69174 1.090876 -0.223286 -11.491145 -0.614844 -0.548836 17.190928 0.985103 -2.400966 6.198639 6.482942 2.419872 -2.391644 -0.699059 1.93851 -37.938198 1.202816 1.781215 4e-06 -0.0 0.0 0.045268 -0.050199 -0.022631 0.258988 -0.104336 0.00133 0.243205 0.005392 -0.048911 -129.928024 -75.295921 140.648956 18.442612 -40.863388 25.851513 44.515621 -0.313166 -0.301581 1.909154 2.279196 8.49666 17.636621 -26.32272 52.411171 -19.466663 -14.395598 29.410378 -0.0 -8.774821 1e-06 15.809381 -18.100674 6.119186 -0.609776 -1.795654 -3.889327 -4.80709 -11.046812 -2.937849 3e-06 -20.976015 -2e-06 -5.019972 -25.033556 -4.031882 7e-06 -1e-06 -2e-06 -10.634533 -5.686971 -3.565585 10.573274 -17.922949 -3.113902 3e-06 -13.821206 -1e-06 -0.501776 -31.181505 -4.027018 -11.149794 -59.600342 7.145495 -13.982712 -7.150195 -2.875036 13.772727 -8.401489 -3.218243 0.347733 -34.211544 0.771651 -0.963028 -17.733368 2.621018 -0.0 0.0 -0.0 -17.346418 -20.095215 -4.20178 21.757557 -1.638375 3.866428 1e-06 -6.338822 0.0 -1.697589 -22.591745 -6.194007 -2e-06 -5e-06 0.0 39.179272 -73.263908 151.612213 16.985565 -37.9851 29.415255 49.658154 0.090829 0.107401 -8.354492 5.842943 -0.609105 22.182112 -20.375887 49.933304 -16.701817 -16.74353 28.476526 -4e-06 -12.6906 3e-06 16.201418 -17.416542 2.552882 -0.105919 -1.513856 -4.275881 -5.03904 -5.612873 -2.953557 5e-06 -11.020523 -1e-06 -6.111297 -15.895332 -3.840467 1e-06 0.0 -3e-06 -10.283371 -5.680288 -4.341836 11.028296 -11.302406 -2.372635 -1.384266 -14.238581 -6.320119 -0.625437 -26.924191 -3.8276 -4.118889 -49.57925 -3.638356 -13.708524 -7.363475 -3.720939 18.14115 -14.05274 -3.242678 7e-06 -18.78727 -2e-06 -0.42971 -8.456043 2.555502 -0.0 0.0 0.0 -15.923536 -20.094482 -5.473583 30.419214 -7.190827 1.735924 6e-06 -8.162924 -4e-06 -1.861899 -22.861469 -6.167942 -1e-06 -1e-06 -0.0 -177.088455 -7.375259 -13.297316 11.451439 0.023266 0.225306 -78.093498 2.853004 -10.896578 -7.850315 1.519119 2.078743 -0.999999 -0.0 0.0 -1.269803 0.128474 -5.772481 13.654962 0.000647 -0.087036 -82.250099 -4.528991 -2.01751 -6.016179 0.867647 1.697118 -1.000001 -0.0 0.0 
0.0 0.0 0.0 0.0 -0.0 0.0 -0.123973 99.985542 6.6081 90.178131 -1.921768 89.967308 -2.666723 1.045118 -0.226302 -11.491583 -0.613525 -0.581076 17.1717 0.959015 -2.442205 6.173461 6.391294 2.430021 -2.401098 -0.707416 1.953688 -37.990414 1.086862 1.787304 7e-06 -1e-06 -0.0 0.044452 -0.045257 -0.022011 0.26527 -0.101787 0.001006 0.247441 0.012665 -0.047676 -129.878952 -75.36644 140.582672 18.546213 -40.753998 25.638559 44.594456 -0.293565 -0.314368 1.94828 2.342628 8.435997 17.636625 -26.322733 52.411198 -19.466665 -14.3956 29.410393 -1e-06 -8.774822 -2e-06 15.741824 -18.101191 6.146359 -0.609777 -1.795655 -3.889326 -4.807087 -11.046808 -2.937849 6e-06 -20.976015 -1e-06 -5.019969 -25.033558 -4.031878 5e-06 -2e-06 -2e-06 -10.634533 -5.686969 -3.565587 10.573276 -17.922951 -3.113901 5e-06 -13.821208 0.0 -0.501774 -31.181505 -4.027015 -11.173018 -59.557201 7.194286 -13.982714 -7.150198 -2.875041 13.77273 -8.401492 -3.218245 0.347734 -34.211544 0.771655 -0.963031 -17.733368 2.621023 0.0 0.0 2e-06 -17.346415 -20.095215 -4.201784 21.757555 -1.638376 3.866427 1e-06 -6.338823 1e-06 -1.697587 -22.591743 -6.194005 -1e-06 -4e-06 0.0 39.14999 -73.24791 151.620789 16.8137 -38.050079 29.566717 49.583763 0.194764 0.109272 -8.345447 5.744137 -0.674943 22.182117 -20.375898 49.933334 -16.701815 -16.743528 28.476536 -3e-06 -12.690603 -0.0 16.204178 -17.395645 2.557288 -0.10592 -1.513856 -4.275881 -5.039042 -5.612871 -2.953558 5e-06 -11.020523 -1e-06 -6.111297 -15.895332 -3.840473 1e-06 -0.0 -0.0 -10.283369 -5.680286 -4.341839 11.028296 -11.302407 -2.372633 -1.384267 -14.238581 -6.320122 -0.625437 -26.924191 -3.827602 -4.095689 -49.535721 -3.667375 -13.708527 -7.363475 -3.720941 18.141153 -14.052742 -3.242677 7e-06 -18.78727 0.0 -0.429711 -8.456045 2.555504 0.0 -0.0 1e-06 -15.923536 -20.094482 -5.473587 30.419218 -7.190827 1.735926 5e-06 -8.162927 -2e-06 -1.861902 -22.861471 -6.167944 -0.0 -1e-06 0.0 -177.39444 -7.598602 -13.419743 11.882616 0.010646 0.242822 -78.326065 2.881586 -11.068656 -7.914918 1.517667 2.074785 -1.000001 -0.0 -0.0 -1.779848 0.262725 -5.742524 14.473303 -0.001147 -0.088245 -82.742989 -4.540583 -1.858676 -6.042789 0.865737 1.696413 -1.000002 0.0 0.0 
